<svg xmlns="http://www.w3.org/2000/svg" width="734.379" height="951.133" viewBox="0 0 734.379 951.133">
  <g id="Group_1" data-name="Group 1" transform="translate(-401.855 -63.957)">
    <path id="Path_1" data-name="Path 1" d="M839.664,1007.855V864.613l215.867-217.977-68.8-69.926,72.93-75.047L913.066,359.41l217.09-219.6-70.5-72.355L840.145,284.977l-72.9-71.848L407.793,576.711l286.684,287.9v143.242" fill="#ea8095" stroke="#155d0f" stroke-linecap="round" stroke-linejoin="round" stroke-width="1"/>
    <path id="Path_2" data-name="Path 2" d="M1056.75,67.457l74.984,73.895L913.18,359.137l143.57,144.492-72.234,75.063L1056.75,645.7,840.543,867.02v144.57H694.5V867.02L404.355,578.691,768.078,214.609l73.012,69.514Z" transform="translate(1)" fill="#ea8095" stroke="#155d0f" stroke-linecap="round" stroke-linejoin="round" stroke-width="7"/>
    <path id="Path_3" data-name="Path 3" d="M766.975,359.508l75.3-76.76" fill="none" stroke="#155d0f" stroke-width="7"/>
    <path id="Path_4" data-name="Path 4" d="M624.66,360.508l215.117-1v72.838" fill="none" stroke="#155d0f" stroke-width="7"/>
    <path id="Path_5" data-name="Path 5" d="M912.969,359.508,621.992,648.789H911.969l73.145-70.863" fill="none" stroke="#155d0f" stroke-width="7"/>
    <path id="Path_7" data-name="Path 7" d="M767.137,504.148H619.395l-67.766,69.035" fill="none" stroke="#155d0f" stroke-width="7"/>
    <path id="Path_6" data-name="Path 6" d="M985.113,429.754,772.207,642" transform="translate(0 6)" fill="none" stroke="#155d0f" stroke-width="7"/>
  </g>
</svg>
