<svg xmlns="http://www.w3.org/2000/svg" xmlns:xlink="http://www.w3.org/1999/xlink" width="643" height="1207" viewBox="0 0 643 1207">
  <defs>
    <clipPath id="clip-books">
      <rect width="643" height="1207"/>
    </clipPath>
  </defs>
  <g id="books" clip-path="url(#clip-books)">
    <rect width="643" height="1207" fill="rgba(255,255,255,0)"/>
    <g id="Group_104" data-name="Group 104" transform="translate(-191.761 0.449)">
      <g id="Group_94" data-name="Group 94" transform="translate(191.761)">
        <g id="Group_85" data-name="Group 85" transform="translate(56.75 712.902)">
          <path id="Path_684" data-name="Path 684" d="M23.3,292.7" transform="translate(-23.3 -292.7)" fill="#fce9e0"/>
        </g>
        <g id="Group_88" data-name="Group 88">
          <g id="Group_87" data-name="Group 87">
            <g id="Group_86" data-name="Group 86">
              <path id="Path_685" data-name="Path 685" d="M533.936,1197.639H103.321C47.546,1197.639,2,1152.093,2,1096.318v-993C2,47.546,47.546,2,103.321,2H533.936c55.775,0,101.321,45.546,101.321,101.321v993C635.258,1152.093,589.712,1197.639,533.936,1197.639Z" transform="translate(2.871 2.871)"/>
              <path id="Path_686" data-name="Path 686" d="M536.808,1205.381H106.192C47.738,1205.381,0,1157.644,0,1099.189v-993C0,47.738,47.738,0,106.192,0H536.808C595.262,0,643,47.738,643,106.192v993C643,1157.644,595.262,1205.381,536.808,1205.381ZM106.192,9.742a96.671,96.671,0,0,0-96.45,96.45v993a96.671,96.671,0,0,0,96.45,96.45H536.808a96.671,96.671,0,0,0,96.45-96.45v-993a96.671,96.671,0,0,0-96.45-96.45Z"/>
            </g>
          </g>
        </g>
        <g id="Group_89" data-name="Group 89" transform="translate(34.342 141.265)">
          <rect id="Rectangle_1518" data-name="Rectangle 1518" width="576.021" height="884.369" fill="#fff"/>
        </g>
        <g id="Group_90" data-name="Group 90" transform="translate(199.135 71.259)">
          <ellipse id="Ellipse_273" data-name="Ellipse 273" cx="9.012" cy="9.499" rx="9.012" ry="9.499" transform="translate(0.202 17.358) rotate(-74.389)" fill="#999"/>
          <path id="Path_687" data-name="Path 687" d="M93.792,52a18.8,18.8,0,0,1-3.653-.487,12.119,12.119,0,0,1-7.063-5.845,10.507,10.507,0,0,1-.731-8.525h0c1.949-6.089,8.525-9.255,14.857-7.307a12.119,12.119,0,0,1,7.063,5.845A10.507,10.507,0,0,1,105,44.208,12.125,12.125,0,0,1,93.792,52ZM86.729,38.362a6.693,6.693,0,0,0,.487,4.871,7.086,7.086,0,0,0,4.141,3.41,6.977,6.977,0,0,0,8.768-4.141,6.693,6.693,0,0,0-.487-4.871,7.086,7.086,0,0,0-4.141-3.41,6.977,6.977,0,0,0-8.768,4.141Z" transform="translate(-81.76 -29.247)" fill="#999"/>
        </g>
        <g id="Group_91" data-name="Group 91" transform="translate(322.474 37.995)">
          <ellipse id="Ellipse_274" data-name="Ellipse 274" cx="6.576" cy="6.333" rx="6.576" ry="6.333" transform="translate(2.436 2.436)" fill="#999"/>
          <path id="Path_688" data-name="Path 688" d="M141.412,33.136a8.942,8.942,0,0,1-9.012-8.768,9.015,9.015,0,0,1,18.023,0A8.788,8.788,0,0,1,141.412,33.136Zm0-12.422a4.059,4.059,0,0,0-4.141,3.9,4.148,4.148,0,0,0,8.281,0A4.059,4.059,0,0,0,141.412,20.715Z" transform="translate(-132.4 -15.6)" fill="#999"/>
        </g>
        <g id="Group_92" data-name="Group 92" transform="translate(263.533 1057.297)">
          <path id="Path_689" data-name="Path 689" d="M166.167,545.164c-31.906,0-57.967-24.843-57.967-55.532S134.261,434.1,166.167,434.1s57.967,24.843,57.967,55.532S198.074,545.164,166.167,545.164Zm0-101.078c-26.548,0-48.225,20.459-48.225,45.789s21.677,45.789,48.225,45.789,48.225-20.459,48.225-45.789S192.716,444.086,166.167,444.086Z" transform="translate(-108.2 -434.1)" fill="#ebb094"/>
        </g>
        <g id="Group_93" data-name="Group 93" transform="translate(261.097 75.504)">
          <path id="Path_690" data-name="Path 690" d="M244.825,31.5H110.136a2.3,2.3,0,0,0-2.436,2.436v4.871a2.441,2.441,0,0,0,2.436,2.436H244.825a2.619,2.619,0,0,0,2.436-2.436V33.936A2.441,2.441,0,0,0,244.825,31.5Z" transform="translate(-106.482 -30.282)" fill="#999"/>
          <path id="Path_691" data-name="Path 691" d="M245.542,43.178H110.853a3.746,3.746,0,0,1-3.653-3.653V34.653A3.746,3.746,0,0,1,110.853,31H245.542a3.746,3.746,0,0,1,3.653,3.653v4.871A3.746,3.746,0,0,1,245.542,43.178ZM110.61,33.436a1.151,1.151,0,0,0-1.218,1.218v4.871a1.151,1.151,0,0,0,1.218,1.218H245.542a1.151,1.151,0,0,0,1.218-1.218V34.653a1.151,1.151,0,0,0-1.218-1.218Z" transform="translate(-107.2 -31)" fill="#999"/>
        </g>
      </g>
    </g>
  </g>
</svg>
