<svg id="Lag_1" data-name="Lag 1" xmlns="http://www.w3.org/2000/svg" viewBox="0 0 999.72 1518.44"><title>dame</title><path d="M115.76,328.84a60,60,0,0,0-27.62-2c-4,.67-12.21,2.1-18.82,7C59,341.53,55.8,355.75,59.91,370.08a58.31,58.31,0,0,0,2.85,6A71.8,71.8,0,0,0,72,388.78c5.57,6.05,21,16.75,43.75,25.28Z" style="fill:#ffedc0"/><path d="M113.76,607.07a155.68,155.68,0,0,0-26.27-5.24c-21.39-2.39-33.88-3.37-44.37,3.75-14.81,10-14.8,30.32-14.79,33.71,0,35.29,42,56.29,44.37,57.44l21.51,10,19.55,5.34Z" style="fill:#ffedc0"/><path d="M113.76,450.56a244.86,244.86,0,0,0-45.1-5.37c-14.32-.35-42.72-.83-56.47,10.72a37.57,37.57,0,0,0-9.41,11.9,40.78,40.78,0,0,0-2.69,11.9c-1.62,23.76,19.13,41.2,24.2,45.24q5.78,3.78,11.87,7.59,5.33,3.38,11,6.7a387.33,387.33,0,0,0,66.61,30.82Z" style="fill:#ffedc0"/><path d="M118.9,787.67l-27.61-2.74C85.47,784.35,70.7,787.08,59,797,32.44,819.7,44.67,866.6,52.3,873.67c.49.46,6.54,5.92,14.33,11.79l.36.27c5.48,4.12,10.22,7.3,13.54,9.45l40.68,28.62v-1.15Q121.2,854.93,118.9,787.67Z" style="fill:#ffeed9"/><rect x="121.16" y="2" width="521.52" height="990.07" rx="76.25" style="fill:#f9f9f9;stroke:#ebb094;stroke-miterlimit:10;stroke-width:4px"/><rect x="145.43" y="114.88" width="474.29" height="732.38" style="fill:#51565f;stroke:#2a303b;stroke-miterlimit:10"/><ellipse cx="290.8" cy="66.32" rx="7.48" ry="7.8" transform="matrix(0.3, -0.95, 0.95, 0.3, 139.9, 323.6)" style="fill:#999;stroke:#999;stroke-miterlimit:10;stroke-width:2px"/><ellipse cx="390.18" cy="36.79" rx="5.39" ry="5.17" style="fill:#999;stroke:#999;stroke-miterlimit:10;stroke-width:2px"/><ellipse cx="381.88" cy="919.63" rx="43.74" ry="41.92" style="fill:none;stroke:#ebb094;stroke-miterlimit:10;stroke-width:4px"/><rect x="333.07" y="61.5" width="114.97" height="8.07" rx="1" style="fill:#999;stroke:#999;stroke-miterlimit:10"/><path d="M999.72,1517.09q-57.15-138.48-114.29-277a311.37,311.37,0,0,1-10.75-41.68c-1.95-10.5-3.23-20.41-4-29.58A988.86,988.86,0,0,0,884.09,898.6a985.48,985.48,0,0,0-32.27-177.49q-13.46-32.26-26.89-64.53-7-58.8-16.14-119.67-3.25-21.67-6.72-43a211.74,211.74,0,0,0-45.72-59.16q-12.09-28.91-24.2-57.81l-21.51-91.43a21.27,21.27,0,0,0-10.76-8.07c-6.44-1.38-23-4-37.65,5.38a41.46,41.46,0,0,0-6.72,5.38,84.83,84.83,0,0,0-24.2,43A243,243,0,0,0,624.59,385c-.53,44.45,11.45,78.89,18.82,99.5a339,339,0,0,0,13.45,32.27,371.5,371.5,0,0,0,1.34,51.09c.71,7.47,1.63,14.65,2.69,21.52q-1.35,10.08-2.69,20.17l-13.44-8.07V734.56l-12.11,45.71a501.08,501.08,0,0,0-16.13,52.44c-2.59,10.44-4.48,19.45-5.82,26.43-1.25,6.55-2.06,11.42-2.25,12.56-1.83,11-8.06,43.29-23.69,120.36-1.21.28-2.93.66-5,1a86.79,86.79,0,0,1-12,1h-372a89.69,89.69,0,0,1-11-1l84.86,112.6,37.65,48.4,45.72,75.3,30.92,44.37,82,90.08a312.81,312.81,0,0,1,55.13,75.3,433.55,433.55,0,0,1,22.85,43c5.87,12.73,10.74,24.91,14.79,36.31Z" style="fill:#ffeed9"/><path d="M118.9,327.38a52.55,52.55,0,0,0-27.61-2.29c-3.56.69-12.33,2.39-18.83,8.07-11,9.61-13.31,28.73-6.7,47.9a49.92,49.92,0,0,0,6,10,51.83,51.83,0,0,0,9,9c12.2,9.79,37.12,24.77,38.14,25.38Z" style="fill:#ffeed9"/><path d="M118.9,450.82a217.44,217.44,0,0,0-45.09-6.06c-14.33-.4-42.72-.94-56.47,12.1A42.36,42.36,0,0,0,7.93,470.3a50.71,50.71,0,0,0-2.69,13.45c-1.63,26.83,19.13,46.53,24.2,51.09q5.77,4.27,11.86,8.57,5.34,3.83,11,7.57a367.26,367.26,0,0,0,66.6,34.81Z" style="fill:#ffeed9"/><path d="M118.9,607.71a146.48,146.48,0,0,0-26.27-5.64c-21.39-2.57-33.87-3.63-44.37,4-14.81,10.82-14.79,32.66-14.79,36.31,0,38,42,60.61,44.37,61.85L99.36,715l19.54,5.75Z" style="fill:#ffeed9"/><path d="M118.18,794.34a67.68,67.68,0,0,1,20.17,20.17c4.18,6.56,16.45,25.78,9.41,45.72-4.76,13.46-16,20.66-21.51,24.2-9.83,6.29-18.78,8.09-25.55,9.41,0,0-11.52,2.24-19.87,0a28.08,28.08,0,0,1-5.76-2.31,40,40,0,0,1-3.47-2.31c-2.53-1.81-4.38-3.27-4.61-3.46-2-1.59-12.6-10.06-14.69-12.06-12.35-11.77-16.69-47.34,0-69.92a52.46,52.46,0,0,1,14.79-13.44A48.06,48.06,0,0,1,94,784.93C105.31,786,113,791,118.18,794.34Z" style="fill:#ffeed9"/><text transform="translate(145.14 464.71)" style="font-size:0.11535999923944473px;font-family:MyriadPro-Regular, Myriad Pro;letter-spacing:-0.016930695326601332em">Lorem ipsum</text><path d="M71.87,881.83l2.68,1.65A19.75,19.75,0,0,0,77.27,885l2.78,1.41c.94.46,1.94.78,2.9,1.17a61,61,0,0,0,5.92,1.92A55.81,55.81,0,0,0,95,890.63a56.92,56.92,0,0,0,12.45.28l3.1-.33c1-.17,2.07-.3,3.09-.5a51.14,51.14,0,0,0,6.11-1.44,47.85,47.85,0,0,1-12.23,3,53,53,0,0,1-12.65,0,57.53,57.53,0,0,1-6.23-1.2l-3-.95c-.5-.17-1-.28-1.51-.5l-1.45-.64c-1-.44-2-.81-2.88-1.31L77,885.46a20.68,20.68,0,0,1-2.62-1.76C73.55,883.09,72.71,882.46,71.87,881.83Z" style="fill:#efddb9"/><path d="M731.76,376.06a370,370,0,0,1-40,2,370.16,370.16,0,0,1-37-2c-1.18-15-2.51-41.76,1-67,.9-6.49,2.39-14.82,9-21,7.46-7,17.75-7.76,21-8a43.62,43.62,0,0,1,16,2,44.47,44.47,0,0,1,9,4Z" style="fill:#ffedc0;stroke:#f4d4bd;stroke-miterlimit:10"/><path d="M567.8,1136.27l-.61-18.29c-.11-6.1-.06-12.2-.09-18.3,0-3,.12-6.1.19-9.15l.27-9.15.53-9.14c.18-3,.31-6.1.62-9.14l.85-9.12c.32-3,.74-6.06,1.11-9.09.2-1.51.35-3,.6-4.54l.72-4.52.72-4.53c.28-1.5.6-3,.89-4.49l.91-4.49c.33-1.49.7-3,1.06-4.46s.67-3,1.1-4.44l1.25-4.41c.4-1.47,1-2.9,1.41-4.36s1-2.88,1.56-4.31a52,52,0,0,1,3.87-8.28,56.55,56.55,0,0,0-3.63,8.38c-.51,1.43-1,2.86-1.44,4.33s-.93,2.9-1.3,4.38l-1.17,4.41c-.41,1.47-.69,3-1,4.45s-.68,3-1,4.46l-.83,4.49c-.27,1.49-.57,3-.82,4.49l-.7,4.51-.69,4.52c-.24,1.5-.38,3-.58,4.53-.35,3-.76,6-1.06,9.07l-.8,9.1c-.32,3-.48,6.08-.67,9.12l-.57,9.12c-.2,6.09-.45,12.18-.61,18.27s-.2,12.19-.18,18.29Z" style="fill:#efddb9"/><path d="M88.76,798.06a72.28,72.28,0,0,0-31,50c18.63,27.29,45,40.43,63.45,33.77a36.67,36.67,0,0,0,18.55-15.77c8.64-15,3-31,2-34C135.11,813,114.12,799.73,88.76,798.06Z" style="fill:#ffedc0;stroke:#f4d4bd;stroke-miterlimit:10"/><path d="M261.61,1047.82l15.78-9.26c5.31-3,10.7-5.87,16.05-8.81,2.67-1.48,5.42-2.8,8.14-4.19l8.17-4.13,8.28-3.89c2.77-1.3,5.52-2.63,8.33-3.81l8.42-3.6c2.82-1.17,5.69-2.24,8.52-3.36,1.43-.54,2.84-1.14,4.28-1.64l4.32-1.52,4.32-1.52c1.45-.47,2.92-.9,4.38-1.36l4.37-1.34c1.47-.42,2.95-.8,4.43-1.2s2.94-.82,4.43-1.14l4.47-1c1.49-.35,3-.55,4.5-.84s3-.49,4.53-.68a51.72,51.72,0,0,1,9.13-.55,56.56,56.56,0,0,0-9.09.81c-1.51.23-3,.47-4.5.79s-3,.57-4.46.95L374,997.59c-1.49.34-2.94.81-4.41,1.21s-2.93.82-4.39,1.26l-4.34,1.4c-1.45.48-2.9.93-4.34,1.43l-4.3,1.54-4.3,1.54c-1.44.5-2.84,1.1-4.26,1.65-2.82,1.13-5.67,2.22-8.48,3.39l-8.38,3.64c-2.82,1.16-5.57,2.48-8.33,3.75l-8.3,3.85c-5.44,2.73-10.92,5.41-16.35,8.18s-10.81,5.64-16.16,8.55Z" style="fill:#efddb9"/><path d="M800.36,490.55c-2.34.67-4.7,1.27-7.05,1.91s-4.75,1.07-7.13,1.6-4.8.87-7.2,1.29-4.83.72-7.26.94l-3.65.32-3.66.17c-1.22.08-2.44.05-3.66.07-.61,0-1.22,0-1.84,0l-1.83-.09c-4.85-.28-9.83-.76-14.32-2.71a32.53,32.53,0,0,0,7.1,1.5,70.18,70.18,0,0,0,7.25.44,113.54,113.54,0,0,0,14.51-.71c2.42-.18,4.81-.57,7.22-.84l7.2-1.14c2.38-.44,4.78-.86,7.17-1.32S798,491,800.36,490.55Z" style="fill:#efddb9"/><path d="M784.7,466.81c-1.87.94-3.77,1.82-5.65,2.74s-3.84,1.67-5.76,2.51-3.9,1.52-5.85,2.29-4,1.41-6,2l-3,.9-3,.81c-1,.28-2,.5-3.06.73l-1.53.35-1.56.27c-4.12.68-8.36,1.27-12.52.61a30.2,30.2,0,0,0,6.23-.29c1-.14,2.06-.27,3.08-.47s2-.37,3.07-.61a120.45,120.45,0,0,0,12.05-3.26c2-.59,4-1.29,5.94-1.94l5.88-2.14C776.92,469.89,780.79,468.32,784.7,466.81Z" style="fill:#efddb9"/><path d="M689.76,550.06c-1.7-1-3.37-2-5.06-3s-3.26-2.21-4.89-3.31-3.15-2.37-4.68-3.61-3-2.51-4.47-3.88a66.15,66.15,0,0,1-7.93-8.79c-2.31-3.18-4.46-6.62-5.38-10.47a24.38,24.38,0,0,0,2.6,5.24,45.59,45.59,0,0,0,3.39,4.76,72.55,72.55,0,0,0,8,8.53c1.38,1.38,2.9,2.61,4.36,3.91s3.06,2.44,4.56,3.69l4.7,3.53C686.56,547.77,688.18,548.89,689.76,550.06Z" style="fill:#efddb9"/><path d="M754.44,782.09l-14.75-3.4c-4.9-1.24-9.76-2.62-14.64-3.93-2.43-.67-4.83-1.46-7.25-2.2l-7.22-2.28-7.16-2.52-3.57-1.25c-1.19-.43-2.36-.92-3.54-1.37l-7-2.82-6.93-3.08c-2.33-1-4.57-2.17-6.84-3.27-1.13-.57-2.28-1.1-3.39-1.7l-3.32-1.84c-1.1-.62-2.22-1.21-3.31-1.85l-3.23-2c-2.19-1.27-4.24-2.76-6.34-4.17s-4.06-3-6-4.67a41.05,41.05,0,0,1-5.38-5.33,44.17,44.17,0,0,0,5.55,5.13c1.95,1.6,4,3,6.08,4.47s4.19,2.8,6.39,4l3.25,1.91c1.1.62,2.22,1.19,3.33,1.79l3.33,1.77c1.12.58,2.26,1.11,3.39,1.66,2.28,1.09,4.51,2.26,6.84,3.22l6.92,3,7,2.76c1.17.47,2.33,1,3.51,1.39l3.56,1.28,7.12,2.55,14.4,4.61c4.85,1.39,9.67,2.85,14.54,4.18Z" style="fill:#efddb9"/><path d="M797.62,854.15l-14.75-3.41c-4.9-1.23-9.76-2.62-14.64-3.92-2.43-.67-4.83-1.46-7.25-2.2l-7.22-2.28-7.16-2.52L743,838.56c-1.19-.43-2.36-.91-3.54-1.37l-7-2.81-6.93-3.08c-2.33-1-4.57-2.17-6.84-3.27-1.13-.57-2.28-1.11-3.39-1.7L712,824.49c-1.1-.62-2.22-1.21-3.31-1.85l-3.23-2c-2.19-1.28-4.24-2.76-6.34-4.17s-4.06-3-6-4.67a41.05,41.05,0,0,1-5.38-5.33,44.93,44.93,0,0,0,5.55,5.13c2,1.59,4,3,6.08,4.47s4.19,2.8,6.39,4L709,822c1.1.62,2.22,1.19,3.33,1.79l3.33,1.77c1.12.57,2.26,1.11,3.39,1.66,2.28,1.09,4.51,2.25,6.84,3.22l6.92,3,7,2.76c1.17.46,2.33,1,3.51,1.39l3.56,1.27,7.12,2.55,14.4,4.62c4.85,1.39,9.67,2.85,14.54,4.18Z" style="fill:#efddb9"/><text transform="translate(348.88 653.6)" style="font-size:0.11335999518632889px;font-family:MyriadPro-Regular, Myriad Pro;letter-spacing:0.008614787583395468em">Må</text><text transform="translate(356.51 637.46)" style="font-size:0.11335999518632889px;font-family:MyriadPro-Regular, Myriad Pro;letter-spacing:0.008614787583395468em">Må</text><path d="M340.69,131.36c2,7.24,3.83,10,5,16.27a75.45,75.45,0,0,1,1.25,16.27,28.78,28.78,0,0,1-6.25,12.52,77.75,77.75,0,0,1-6.26,6.26,76,76,0,0,1-10,7.5,121.41,121.41,0,0,1-13.77,7.51,120.33,120.33,0,0,1-12.52,5,111.32,111.32,0,0,1-11.26,2.5c-3.37.58-4.47.6-10,1.26-8.37,1-12.56,1.47-17.52,2.5a96.82,96.82,0,0,0-12.51,3.75,20.8,20.8,0,0,0-5,2.51,20.19,20.19,0,0,0-5,5,26.55,26.55,0,0,0-2.5,5A27.18,27.18,0,0,0,233.05,239c1.63,10.14,3.22,18.18,3.75,20a147.91,147.91,0,0,0,7.58,20.45,48.1,48.1,0,0,0-6.93,17.31c-.75,4.07-3.75,20.27,6.93,34.62s27.22,16.23,30,16.49a43.59,43.59,0,0,0-2.5,11.26,42.64,42.64,0,0,0,0,7.51,92.79,92.79,0,0,0,2.5,15c3.26,11.84,6.86,30.51,8.11,38.58,1.13,7.39,3.37,21.89.65,37.77-3.26,19-12.89,31.53-15,36.29-10.79,24.11-16,77.34-9.38,127,0,0,5.12,41.6,24.4,95.74,4.87,13.68,9.18,27.54,13.77,41.31a97.71,97.71,0,0,1,3.75,15,99.23,99.23,0,0,1,1.26,11.26c-.32,4.49-.73,9.08-1.26,13.77a327.62,327.62,0,0,1-8.94,47.6h83.08c-.65-3.16-6.16-30.45-6.55-48.85-.11-4.94,0-10,0-10,.26-4.54.67-11.51,1.25-20q1.13-16.5,2.51-32.54,1.25-30,2.5-60.08c.2-7.54.32-17.82,0-30-.21-8-.4-15.5-1.25-25a298.64,298.64,0,0,0-5-33.79l13.77,2.5c-.88,3.79-1.79,8.43-2.51,13.77a147.23,147.23,0,0,0-1.25,16.27,141.17,141.17,0,0,0,1.25,21.28c2.32,18,3.7,36.53,5,57.57q1.26,20,2.5,40l1.26,16.27c.47,6.18,1.06,9.78,2.5,22.53.55,4.88,1,8.83,1.25,11.26.11,2.69.19,6.58,0,11.27-.07,1.83-.18,3.52-.3,5.07-.34,4.27-.78,7.43-.95,8.7-.69,5-2.27,17.14-4.44,33.83h83.08c-4.81-27.26-8.32-47.66-9.8-56.36a80.12,80.12,0,0,1-1.26-10,150.82,150.82,0,0,1,0-16.27,139.34,139.34,0,0,1,2.51-20,123.9,123.9,0,0,1,3.76-14c.62-1.86,1.13-3.23,1.24-3.54,26.63-72.51,35.67-117,35.67-117,12.23-60.17,6.59-94,3.13-109.51h0a143.62,143.62,0,0,0-6.25-20L475.86,453q-4.2-4.8-8.39-9.59c-18.85-22.51-21.75-42.06-22.31-50.87-1.19-18.59,4.76-40.69,8.19-53.45,1.5-5.58,2.21-7.47,3.73-13.75,3.91-16.15,3.59-28.28,7.51-28.79,1.67-.22,3.2,1.78,3.76,2.5,10.89,14.1,35.09,36.81,40,41.31,20.24,18.35,23.51,21.82,30,28.78a12.91,12.91,0,0,1,3.75,7.51c.42,4.51-2.25,8.23-3.75,10-4.55,7.7-9.54,15.66-15,23.78-8.37,12.42-16.81,23.66-25,33.8L464,441.13q17.2,19.08,34.42,38.17L514.66,458a386.07,386.07,0,0,0,40.05-32.55c5.93-5.53,10.21-10.36,18.77-20,12-13.54,16.11-19.71,16.27-27.54a25.43,25.43,0,0,0-2.5-11.26q-5.78-9.17-12.52-18.77c-6.71-9.53-13.43-18.28-20-26.29a510.36,510.36,0,0,1-45.06-65.08c-5.92-11.63-11.59-21.28-16.27-28.79-7.92-12.67-12.71-18.67-20-23.78a55.54,55.54,0,0,0-8.76-5,39.37,39.37,0,0,0-7.51-2.51,99,99,0,0,0-10-1.25c-6.09-.6-10.49-.93-15-1.25-3.79-.27-9.38-.68-16.27-1.25a50.21,50.21,0,0,1-8.76-3.76,50.82,50.82,0,0,1-7.51-5,70.3,70.3,0,0,1-6.88-8.14,68.27,68.27,0,0,1-4.38-6.88,23.89,23.89,0,0,1-2.51-7.51,24.14,24.14,0,0,1,0-7.51c2.74.88,5.66,1.73,8.76,2.5,1,.26,2.95.74,4.67,1.08a45.38,45.38,0,0,0,19.11.17,38.86,38.86,0,0,0,7.51-2.5,45.77,45.77,0,0,0,6.26-5c5.85-5.57,8.74-11.22,11.27-16.27a82.3,82.3,0,0,0,6.44-17.8h-112A96.38,96.38,0,0,0,340.69,131.36Z" style="fill:#f8d3d2"/><g style="opacity:0.7000000000000001"><path d="M253.26,269.77c-9.88,8.76-16.22,21.58-16.19,34.76a47.65,47.65,0,0,0,3.63,19.18c.16.37.31.75.48,1.13l.56,1.08c.39.72.73,1.47,1.16,2.16a37,37,0,0,0,2.77,4c.52.63,1,1.31,1.54,1.9l1.69,1.77a27.58,27.58,0,0,0,3.69,3.21A42.31,42.31,0,0,0,270.33,347a37.91,37.91,0,0,0,9.75.5,38.64,38.64,0,0,0,9.56-2.1A43.72,43.72,0,0,0,306,334.74a82.14,82.14,0,0,0,6.37-7.56q3-4,5.76-8.08-2.66,4.18-5.56,8.22a82.43,82.43,0,0,1-6.21,7.76,44.41,44.41,0,0,1-16.49,11,37.76,37.76,0,0,1-9.74,2.23,39,39,0,0,1-10-.46A43.33,43.33,0,0,1,252,339.79a28.28,28.28,0,0,1-3.77-3.31l-1.73-1.82c-.58-.61-1.05-1.31-1.58-2a39.31,39.31,0,0,1-2.82-4.15c-.43-.71-.78-1.48-1.17-2.21l-.57-1.12c-.17-.38-.32-.77-.48-1.16a42.25,42.25,0,0,1-2.82-9.59,48.8,48.8,0,0,1-.74-10,44.79,44.79,0,0,1,4.7-19.25A49.42,49.42,0,0,1,253.26,269.77Z" style="fill:#fb9697"/></g><g style="opacity:0.7000000000000001"><path d="M363.39,335.68A82,82,0,0,0,386.86,345a80,80,0,0,0,12.51,1.67,73.71,73.71,0,0,0,12.6-.47h-.05a93.51,93.51,0,0,0,10.07-3,35.5,35.5,0,0,0,9.3-4.64c1.43-1,2.78-2.1,4.13-3.21a30.63,30.63,0,0,0,3.8-3.57,26,26,0,0,0,5.1-9v0a15.86,15.86,0,0,0-3.5-13.71,15.72,15.72,0,0,1,3.64,6.4,16,16,0,0,1,.37,7.41h0v0a26.66,26.66,0,0,1-5,9.34A31.93,31.93,0,0,1,436,336c-1.36,1.13-2.72,2.27-4.18,3.29a36.44,36.44,0,0,1-9.49,4.82,82.47,82.47,0,0,1-10.17,3h-.05a74.49,74.49,0,0,1-12.76.39,72.61,72.61,0,0,1-12.62-1.84,76.52,76.52,0,0,1-12.09-4A77.77,77.77,0,0,1,363.39,335.68Z" style="fill:#fb9697"/></g><circle cx="273.4" cy="310.16" r="13.44" style="fill:#f7dbc4"/><path d="M260,310.16a13.41,13.41,0,0,0,4,9.45,13.17,13.17,0,0,0,18.64-.25,13.19,13.19,0,0,0,0-18.4,13.19,13.19,0,0,0-18.64-.25A13.41,13.41,0,0,0,260,310.16Zm0,0a13.51,13.51,0,0,1,3.88-9.55,13.68,13.68,0,0,1,19.36-.25,13.69,13.69,0,0,1,0,19.6,13.7,13.7,0,0,1-19.36-.25A13.51,13.51,0,0,1,260,310.16Z" style="fill:#ffe4cc"/><circle cx="273.4" cy="310.16" r="3.36" style="fill:#ebb094"/><circle cx="407.33" cy="309.86" r="13.44" style="fill:#f7dbc4"/><path d="M393.89,309.86a13.47,13.47,0,0,0,4,9.45,13.18,13.18,0,0,0,18.65-.25,13.17,13.17,0,0,0,0-18.39,13.18,13.18,0,0,0-18.65-.25A13.47,13.47,0,0,0,393.89,309.86Zm0,0a13.54,13.54,0,0,1,3.89-9.55,13.69,13.69,0,0,1,19.35-.25,13.69,13.69,0,0,1-9.8,23.49,13.71,13.71,0,0,1-9.55-4.13A13.55,13.55,0,0,1,393.89,309.86Z" style="fill:#ffe4cc"/><circle cx="407.33" cy="309.86" r="3.36" style="fill:#ebb094"/><path d="M381.85,588.77a615.78,615.78,0,0,1,118.87-103.1c-.78-2.12-1.56-4.25-2.33-6.37-21,7.16-44,14-68.84,20-16.48,4-32.37,7.29-47.56,10q-21-2.4-43.81-6.26c-24.25-4.16-46.86-9.2-67.69-14.69l-1.77,4.05a658.78,658.78,0,0,1,54.44,46.94,655.84,655.84,0,0,1,45.49,48.42,18.55,18.55,0,0,0,13.2,1Z" style="fill:#d1c3db"/><path d="M381.83,588.73Q394.91,574,409,560.12t28.91-26.84a619.13,619.13,0,0,1,62.7-47.84l-.1.32-2.35-6.36.35.17a797.07,797.07,0,0,1-116.41,30.17h-.12q-28.21-3.19-56.17-8.4t-55.41-12.48l.59-.28-1.77,4.05-.16-.59a642.16,642.16,0,0,1,52.42,45.19,639.25,639.25,0,0,1,47.3,50.49l0,0a18.65,18.65,0,0,0,6.47,1.72,18,18,0,0,0,3.36,0A19.06,19.06,0,0,0,381.83,588.73Zm.05.08a18.45,18.45,0,0,1-3.33.7,19.21,19.21,0,0,1-3.39.08,18.64,18.64,0,0,1-6.56-1.68h0l0,0A678.91,678.91,0,0,0,321,537.75a672.68,672.68,0,0,0-52.54-44.91l-.3-.24.15-.36,1.77-4.05.17-.39.42.11Q298,495.13,326,500.39T382,508.93h-.11A795.5,795.5,0,0,0,498.3,479l.25-.09.1.26,2.33,6.37.07.2-.18.12a618.54,618.54,0,0,0-62.78,47.63q-14.91,12.9-29,26.74T381.88,588.81Z" style="fill:#cbb0e2"/><path d="M363,446.45a5.73,5.73,0,0,0,.43,2.21c.29.65.85,1.35,1.45,1.3s.92-.79,1.1-1.43a8.15,8.15,0,0,0,0-4.16c-.19-.64-.53-1.35-1.1-1.42s-1.16.64-1.45,1.29A5.73,5.73,0,0,0,363,446.45Zm0,0a7.89,7.89,0,0,1,.3-2.26,4.06,4.06,0,0,1,.49-1.06,1.52,1.52,0,0,1,1.09-.69,1.61,1.61,0,0,1,1.22.57,3.58,3.58,0,0,1,.69,1.06,6.39,6.39,0,0,1,0,4.76,3.79,3.79,0,0,1-.69,1.06,1.6,1.6,0,0,1-1.22.56,1.48,1.48,0,0,1-1.09-.68,4,4,0,0,1-.49-1.07A7.78,7.78,0,0,1,363,446.45Z" style="fill:#fb9697"/><g style="opacity:0.5"><path d="M341.3,342a114.67,114.67,0,0,0,1.24,21.76,89,89,0,0,0,6,20.88A175.77,175.77,0,0,1,356,405.22a145,145,0,0,1,4.48,21.42c-.68-3.58-1.42-7.15-2.31-10.68s-1.82-7-2.91-10.52-2.25-6.92-3.56-10.32-2.73-6.73-4.16-10.1a86.15,86.15,0,0,1-5.79-21.15,97.55,97.55,0,0,1-.86-10.93A105,105,0,0,1,341.3,342Z" style="fill:#fb9697"/></g><g style="opacity:0.7000000000000001"><path d="M377.05,230.93c39.8-6.49,36.4-8.16,36.4-8.16" style="fill:#ff7bab"/><path d="M377.05,230.93c1.53-.36,3.07-.66,4.61-1l4.61-.93,9.24-1.79,9.23-1.79c1.53-.31,3.07-.63,4.58-1,.77-.17,1.53-.36,2.27-.58.38-.12.75-.24,1.11-.39a3.11,3.11,0,0,0,.52-.25,1.24,1.24,0,0,0,.23-.17c.06-.06.09-.19,0-.24.1,0,.09.19,0,.26a1.15,1.15,0,0,1-.22.22,3.56,3.56,0,0,1-.5.32c-.35.19-.71.34-1.08.5-.73.29-1.47.55-2.22.81-1.51.47-3,.88-4.55,1.28-3.05.78-6.13,1.42-9.21,2s-6.19,1.12-9.3,1.57S380.18,230.63,377.05,230.93Z" style="fill:#fb9697"/></g><rect x="178.82" y="688.43" width="408.39" height="98.42" rx="39.5" style="fill:#f9f9f9"/><text transform="translate(219.42 751.48)" style="font-size:37.196449279785156px;fill:#f6921e;font-family:Futura-Medium, Futura;font-weight:500">Må du dele d<tspan x="230.1" y="0" style="letter-spacing:0.008795152328633492em">e</tspan><tspan x="251.01" y="0">t</tspan><tspan x="261.18" y="0" style="letter-spacing:0.008795152328633492em">t</tspan><tspan x="271.67" y="0">e?</tspan></text></svg>
