<svg id="Layer_1" data-name="Layer 1" xmlns="http://www.w3.org/2000/svg" width="200" height="150" viewBox="0 0 200 150"><defs><style>.cls-1{fill:#ebc0ff;}.cls-2{fill:#f9fcc3;}.cls-3{fill:#633c73;}.cls-4{fill:#b78dce;}.cls-5{fill:#179900;}.cls-6{fill:#ff351f;}.cls-7{fill:#26ff00;}.cls-8{fill:#b8f9aa;}.cls-9{fill:#fff;}</style></defs><title>dog</title><path class="cls-1" d="M13.08,79S2.48,81.37,2.47,85.68s10.61,9.2,10.61,9.2c0,2.42,1.1,9.23,2.45,9.23H28.38c1.35,0,2.45-2,2.45-4.38V74.46c0-2.42-1.1-4.38-2.45-4.38H16.65C15.3,70.08,13.08,76.58,13.08,79Z"/><path class="cls-1" d="M33.67,64.41l.42,51.51c0,5.35,3.67,9.68,8.2,9.68H93.53c4.53,0,8.2-4.33,8.2-9.68v-55c0-5.35-3.67-9.69-8.2-9.69H42.29C37.76,51.19,33.67,59.06,33.67,64.41Z"/><path class="cls-2" d="M177.91,130.87l-28.47-9.65c-1.41-.48-2.48-1.08-2.39-1.34l-6.46-3c.09-.26,7.95,2.42,9.36,2.9l29.77,7.39c1.41.48,4.57-.24,4.48,0,0,0-3.11,3.5-3.4,3.6"/><path class="cls-3" d="M178.45,111.2H148.39a2.69,2.69,0,0,1-2.69-2.7l-7.1-4.39c0-1.49,8.3-1.42,9.79-1.42l29.92-1.41c1.49,0,4.26-1.49,4.26,0,0,0-1.18,3.22-1.42,4.25a36.18,36.18,0,0,1-2.84,5.67C178.31,112.69,179.94,111.2,178.45,111.2Z"/><path class="cls-2" d="M177.8,106.83H147.74a5.23,5.23,0,0,1-2.7-.5c-1.18-1.33-7.09-.81-7.09-.81,0-.28,8.3-.27,9.79-.27,0,0,22.91-2.23,30.57-2.56,1.49-.06,4.31-1.68,4.26-1.41a19.3,19.3,0,0,1-2.07,4.5"/><path class="cls-1" d="M182.88,61.25c2.29-3.3,4.58-7.17,6.88-11.16,7.2-12.47,9.6-29.79,5.84-31.7-8.19-4.16-37.2,10.61-44.4,23.09a14.14,14.14,0,0,0-1.42,2.83h-6.62c.07-.3.14-.6.2-.91,3.78-18-.69-47.6-10.76-41.6-9,5.33-20,16.22-23.77,34.25C107.5,42.36,105.3,50.54,106,55.9c-.19.94,1.42.4,1.42,1.42"/><path class="cls-4" d="M33.67,65.58v55c0,5.35,3.73,9.69,8.34,9.69H94.1c4.61,0,8.35-4.34,8.35-9.69v-55c0-5.35-3.74-9.68-8.35-9.68H42C37.4,55.9,33.67,60.23,33.67,65.58Z"/><path class="cls-4" d="M195.77,22.88c-8.19-4.16-37.2,10.62-44.4,23.09A14.21,14.21,0,0,0,150,48.81h-6.62c.07-.31.14-.61.2-.92,3.78-18-.7-47.59-10.76-41.6-9,5.34-21.84,16-25.62,34C105.83,46.59,106,60,106,61v66.86c0,6.73,4.29,12.19,9.59,12.19h57.88c5.29,0,10.24-5.49,9.59-12.19-.06-.63-.36-1.86-.48-2.48h0s-6.36,1.51-8.51,1.42c-1.46-.06-4.25-1.1-5.68-1.42-1.76-.39-5.34-.95-7.09-1.41-2.16-.58-6.43-2-8.5-2.84-1.47-.61-4.23-2.19-5.68-2.84-1.74-.78-5.44-1.87-7.09-2.83-2-1.15-6.52-3.16-8.51-4.26-1.38-.76-3.24-3-4.25-4.25-1.65-2-4.86-8.33-2.84-9.93,1.5-1.18,5.35,2.06,7.09,2.84,1.45.65,4.23,2.19,5.68,2.83,1.74.79,5.21,2.48,7.09,2.84s5.32,0,7.09,0h7.09c2.13,0,6.4.27,8.51,0a78.91,78.91,0,0,0,8.06-2.1c1.89-.52,6.35-.6,7.54-2.15,5.39-7.06,2.83-35.46,2.83-35.46,2.29-3.29,2.23-7.25,4.53-11.23C197.13,42.12,199.53,24.79,195.77,22.88Z"/><path class="cls-3" d="M111.66,43.14C114.84,28,123.6,19,131.14,14.46c8.46-5,12.06,14.93,8.88,30.09"/><path class="cls-3" d="M161.89,43.94a8.84,8.84,0,0,1,.91-1.82c4.62-8,23.25-17.5,28.5-14.83,2.42,1.23-1.28,19.18-5.9,27.19"/><path d="M189.66,92.06c0,7.44-7.23,10.63-17,10.63-6.12,0-9.58-.67-12.76-4.25-1.92-2.15-5.68-3.59-5.68-6.38,0-7.44,8.65-9.22,18.44-9.22S189.66,84.62,189.66,92.06Z"/><circle class="cls-5" cx="171.22" cy="68.66" r="11.34"/><circle class="cls-5" cx="142.86" cy="68.66" r="9.93"/><path class="cls-1" d="M130.1,99.86c-.83-.18-.76-1.26-1.42-1.42-2-.47-2.84-1.23-2.84-1.42"/><path class="cls-4" d="M13.08,80.42s-10.6,1-10.61,5.26S13.08,96.3,13.08,96.3c0,2.42,1.1,9.23,2.45,9.23H28.38c1.35,0,2.45-2,2.45-4.38V75.88c0-2.42-1.1-4.38-2.45-4.38H15.53C14.18,71.5,13.08,78,13.08,80.42Z"/><path class="cls-6" d="M193,124.92c0,.73,2.87,11.13,2.37,17.89a6.54,6.54,0,0,1-1.78,3.75,16.67,16.67,0,0,1-2.18,2c-4.86,4.43-9-25-27.28-24.71-.81,0-25.4-5.54-28.36-7.68-8.9-6.41-12.76-15.86-12.76-19.21,0-6.13,12.5,10.81,35.91,10.81,5.7,0,12.42-.37,16.64.71C188.67,111.82,193,120.29,193,124.92Z"/><rect class="cls-7" x="171.22" y="65.82" width="7.09" height="7.09" rx="1.98"/><rect class="cls-7" x="144.28" y="65.82" width="5.67" height="5.67" rx="1.29"/><circle class="cls-8" cx="176.18" cy="69.37" r="2.13"/><circle class="cls-8" cx="148.53" cy="68.66" r="1.42"/><ellipse class="cls-9" cx="178.31" cy="89.93" rx="4.25" ry="2.84"/></svg>
