<svg id="Lag_1" data-name="Lag 1" xmlns="http://www.w3.org/2000/svg" viewBox="0 0 823 956"><title>font_style</title><text transform="translate(-0.32 93.86)" style="font-size:100px;font-family:Futura-Bold, Futura;font-weight:700">FUTURA (<tspan x="494.59" y="0" style="letter-spacing:-0.00599609375em">B</tspan><tspan x="563.19" y="0">OLD)</tspan></text><text transform="translate(48.07 320.32)" style="font-size:80px;font-family:Futura-Medium, Futura;font-weight:500">FUTURA (MEDIUM)</text><text/><text transform="translate(96.29 468.36)" style="font-size:40px;font-family:Futura-Medium, Futura;font-weight:500">Lo<tspan x="41.78" y="0" style="letter-spacing:-0.0068359375em">r</tspan><tspan x="56.46" y="0">em ipsum dolor sit am</tspan><tspan x="452.97" y="0" style="letter-spacing:0.0087890625em">e</tspan><tspan x="475.45" y="0">t, consec</tspan><tspan x="633.54" y="0" style="letter-spacing:0.0087890625em">t</tspan><tspan x="644.82" y="0">e</tspan><tspan x="666.95" y="0">-</tspan><tspan x="6.9" y="48">tuer adipiscing elit, sed diam nonum</tspan><tspan x="660.05" y="48">-</tspan><tspan x="11.07" y="96" style="letter-spacing:-0.01611328125em">m</tspan><tspan x="42.07" y="96">y nibh euismod tincidunt ut lao</tspan><tspan x="594.36" y="96" style="letter-spacing:-0.0068359375em">r</tspan><tspan x="609.04" y="96">e</tspan><tspan x="631.17" y="96" style="letter-spacing:0.0087890625em">e</tspan><tspan x="653.65" y="96">t </tspan><tspan x="3.56" y="144">dolo</tspan><tspan x="85.6" y="144" style="letter-spacing:-0.0068359375em">r</tspan><tspan x="100.28" y="144">e magna ali</tspan><tspan x="316.49" y="144" style="letter-spacing:0.01123046875em">q</tspan><tspan x="340.93" y="144">uam e</tspan><tspan x="452.82" y="144" style="letter-spacing:-0.0068359375em">r</tspan><tspan x="467.51" y="144">at </tspan><tspan x="514.78" y="144" style="letter-spacing:-0.01904296875em">v</tspan><tspan x="534.11" y="144">olutpat. </tspan><tspan x="20.7" y="192">Ut wisi enim ad minim </tspan><tspan x="428.79" y="192" style="letter-spacing:-0.01708984375em">v</tspan><tspan x="448.2" y="192">eniam, </tspan><tspan x="582.54" y="192" style="letter-spacing:0.01123046875em">q</tspan><tspan x="606.97" y="192">uis </tspan><tspan x="8.51" y="240">nost</tspan><tspan x="81.65" y="240" style="letter-spacing:0.01513671875em">r</tspan><tspan x="97.22" y="240">ud </tspan><tspan x="155.34" y="240" style="letter-spacing:-0.01904296875em">e</tspan><tspan x="176.71" y="240" style="letter-spacing:-0.01611328125em">x</tspan><tspan x="198.39" y="240">e</tspan><tspan x="220.52" y="240" style="letter-spacing:-0.0087890625em">r</tspan><tspan x="235.13" y="240">ci </tspan><tspan x="276.49" y="240" style="letter-spacing:0.0087890625em">t</tspan><tspan x="287.78" y="240">ation ullamco</tspan><tspan x="531.44" y="240" style="letter-spacing:0.01513671875em">r</tspan><tspan x="547" y="240">per su</tspan><tspan x="658.45" y="240">-</tspan><tspan x="35.6" y="288">scipit lobo</tspan><tspan x="220.11" y="288" style="letter-spacing:0.0361328125em">r</tspan><tspan x="236.51" y="288">tis nisl ut ali</tspan><tspan x="445.4" y="288" style="letter-spacing:0.01123046875em">q</tspan><tspan x="469.83" y="288">uip </tspan><tspan x="537.92" y="288" style="letter-spacing:-0.01904296875em">e</tspan><tspan x="559.29" y="288">x ea </tspan><tspan x="6.51" y="336">commodo conse</tspan><tspan x="300.71" y="336" style="letter-spacing:0.01123046875em">q</tspan><tspan x="325.15" y="336">uat. au</tspan><tspan x="452.33" y="336" style="letter-spacing:0.0087890625em">t</tspan><tspan x="463.62" y="336">em </tspan><tspan x="529.74" y="336" style="letter-spacing:-0.01708984375em">v</tspan><tspan x="549.15" y="336">el eum </tspan><tspan x="14.74" y="384">i</tspan><tspan x="24.7" y="384" style="letter-spacing:0.01513671875em">r</tspan><tspan x="40.26" y="384">iu</tspan><tspan x="72.02" y="384" style="letter-spacing:-0.0068359375em">r</tspan><tspan x="86.71" y="384">e dolor in hend</tspan><tspan x="364.74" y="384" style="letter-spacing:-0.0068359375em">r</tspan><tspan x="379.42" y="384">e</tspan><tspan x="401.55" y="384" style="letter-spacing:0.01513671875em">r</tspan><tspan x="417.12" y="384">it in vulpu</tspan><tspan x="592.24" y="384" style="letter-spacing:0.0087890625em">t</tspan><tspan x="603.53" y="384">a</tspan><tspan x="627.51" y="384" style="letter-spacing:0.0087890625em">t</tspan><tspan x="638.8" y="384">e </tspan><tspan x="-6.96" y="432" style="letter-spacing:-0.01708984375em">v</tspan><tspan x="12.45" y="432">elit esse molestie conse</tspan><tspan x="429.62" y="432" style="letter-spacing:0.01123046875em">q</tspan><tspan x="454.05" y="432">uat, </tspan><tspan x="535.46" y="432" style="letter-spacing:-0.01708984375em">v</tspan><tspan x="554.87" y="432">el illum </tspan><tspan x="131.49" y="480">dolo</tspan><tspan x="213.53" y="480" style="letter-spacing:-0.0068359375em">r</tspan><tspan x="228.21" y="480">e eu </tspan><tspan x="318.96" y="480" style="letter-spacing:0.01513671875em">f</tspan><tspan x="331.44" y="480">eugiat nulla </tspan></text></svg>
