<svg id="Layer_1" data-name="Layer 1" xmlns="http://www.w3.org/2000/svg" viewBox="0 0 390 362.06"><title>helt</title><path d="M235.81,75.06C229,7.31,187.53,0,143.41,0S62.2,3,55.09,71c-38.69,6.24-52.28,38.65-52.28,48,0,16.09,52.58,33.46,141.78,33.46s115.22-20.37,115.22-36.46c0-9.37,14.92-27.63-18-35C239.62,80.57,238.47,75.4,235.81,75.06Z" style="fill:#ffe100"/><polygon points="234.37 63.63 145.63 71.11 55.84 65.62 54.81 71.6 145.63 78.06 235.41 71.58 234.37 63.63" style="fill:#5777ea"/><rect x="99.81" y="293.46" width="78.69" height="68.58" rx="29.29" style="fill:#5576ff"/><rect x="94.81" y="196.06" width="118" height="93" rx="40.53" style="fill:#5576ff"/><path d="M236.49,76.08c-6.86-67.75-43.55-71-87.68-71s-81.21,3-88.32,71c-38.68,6.24-57.68,33.59-57.68,43,0,16.09,58,38.52,147.18,38.52s141.82-22.43,141.82-38.52C291.81,109.07,279.06,81.58,236.49,76.08Z" style="fill:#d3ba2a"/><path d="M232.49,149.58c0,9.41-7.75,16.61-18.68,23.48-.23.15-3.58,1.57-10,2a122,122,0,0,1-21-1c-3.15-.45-6.19-1.07-8.85-1.67a11.3,11.3,0,0,1-7.15-5.33c-.17.1,1.87,4.74,6.54,6.51,5.15,1.94,11.08,4,13,4.37,6.47,1.12,13,.16,17.47.12q1.41,0,2.52-.09c2-.12,1.12.72.15,1.17-14.71,6.79-34.49,10.94-56.24,10.94C125.35,190.08,103,184.64,88,176c-12.44-7.09-20-16.34-20-26.45" style="fill:#776601"/><polygon points="234.81 64.06 148.81 71.58 61.81 66.06 60.81 72.08 148.81 78.58 235.81 72.06 234.81 64.06" style="fill:#081a73"/><rect x="98.81" y="196.06" width="118" height="93" rx="40.53" style="fill:#0d2bbf"/><rect x="104.89" y="293.48" width="78.69" height="68.58" rx="28.79" style="fill:#0d2bbf"/><path d="M194.81,150.06a6,6,0,0,1-12,0"/><path d="M192.26,151.06a2.33,2.33,0,1,1-4.66,0" style="fill:#b3c5ff"/><path d="M380.66,181c-1.9,5.63-18.47,12.33-18.47,12.33s-21.35,11-28.76,14c-25.94,10.55-106.35,35.13-106.35,35.13l-4.82-9.89s80.86-38.32,107.23-52.24c13.67-7.21,53.73-30.62,53.73-30.62s4.76,10.77,3.85,17C386.38,171.49,381.38,178.88,380.66,181Z" style="fill:#3f3f3f"/><path d="M176.26,263.74c11.22,2.45,34.25-23.9,45.85-22.33,1.16.15,1.34,3,2.49,3.17.72.1,2.84-1.38,2.84-1.38l-5.53-11.35s-2.73.83-3.12,1.53.9,3.06.9,3.06-40.85,12-45.84,22.34C173.16,260.2,174.72,263.41,176.26,263.74Z" style="fill:#736500"/><path d="M378.08,179.79c-2.15,5-18.43,11.8-18.43,11.8s-21.12,10.79-28.4,13.84c-25.5,10.66-90.91,29.95-86.08,28.51,21.45-6.42,54.67-18.31,80.42-28.85,13.44-5.5,25.54-12.22,32-15.57,3.61-1.88,11.63-5,16.5-9,2.93-2.4,3.3-5.29,4.88-8a30.4,30.4,0,0,0,3.37-20.15s4,9.12,2.74,14.63C384.11,171.19,378.88,177.92,378.08,179.79Z" style="fill:#fcfcfc"/></svg>
