<svg id="Layer_1" data-name="Layer 1" xmlns="http://www.w3.org/2000/svg" viewBox="0 0 378.13 491.79"><title>skurk</title><path d="M177.37,286.58S166,289.12,166,293.74s11.37,9.86,11.37,9.86c0,2.59,1.18,9.89,2.63,9.89h13.76c1.46,0,2.63-2.1,2.63-4.69V281.72c0-2.59-1.17-4.69-2.63-4.69H181.2C179.75,277,177.37,284,177.37,286.58Z" style="fill:#ebc0ff"/><path d="M199.43,271l.45,55.19c0,5.73,3.94,10.38,8.79,10.38h54.9c4.86,0,8.79-4.65,8.79-10.38v-59c0-5.73-3.93-10.38-8.79-10.38h-54.9C203.82,256.79,199.43,265.22,199.43,271Z" style="fill:#ebc0ff"/><path d="M354,342.16l-30.5-10.34c-1.51-.51-2.66-1.16-2.57-1.44L314,327.12c.09-.28,8.51,2.59,10,3.1l31.9,7.92c1.51.52,4.9-.25,4.8,0,0,0-3.33,3.74-3.65,3.85" style="fill:#f9fcc3"/><path d="M354.56,321.09h-32.2a2.9,2.9,0,0,1-2.9-2.89l-7.59-4.71c0-1.6,8.89-1.52,10.49-1.52l32.05-1.52c1.6,0,4.56-1.59,4.56,0,0,0-1.26,3.45-1.52,4.56-.39,1.65-3,6.08-3,6.08C354.41,322.69,356.15,321.09,354.56,321.09Z" style="fill:#633c73"/><path d="M353.86,316.4h-32.2a5.36,5.36,0,0,1-2.89-.54c-1.28-1.42-7.6-.87-7.6-.87,0-.29,8.89-.28,10.49-.28,0,0,24.54-2.39,32.75-2.74,1.6-.06,4.62-1.81,4.56-1.52a20.78,20.78,0,0,1-2.22,4.83" style="fill:#f9fcc3"/><path d="M359.3,267.57c2.46-3.54,4.91-7.69,7.38-12,7.71-13.36,10.28-31.92,6.25-34-8.77-4.46-39.85,11.38-47.57,24.74a15.14,15.14,0,0,0-1.52,3h-7.09c.07-.33.15-.65.21-1,4.05-19.32-.74-51-11.53-44.57-9.6,5.71-21.43,17.38-25.47,36.69-1.42,6.77-3.77,15.53-3,21.27-.2,1,1.52.43,1.52,1.52" style="fill:#ebc0ff"/><path d="M199.43,272.21v59c0,5.73,4,10.38,8.94,10.38h55.82c4.93,0,8.93-4.65,8.93-10.38v-59c0-5.73-4-10.38-8.93-10.38H208.37C203.43,261.83,199.43,266.48,199.43,272.21Z" style="fill:#b78dce"/><path d="M373.12,226.46c-8.78-4.46-39.86,11.37-47.58,24.74a15.62,15.62,0,0,0-1.52,3h-7.09c.07-.33.15-.66.22-1,4-19.32-.75-51-11.53-44.58-9.61,5.72-23.41,17.1-27.45,36.41-1.42,6.77-1.25,21.11-1.25,22.2v71.64c0,7.22,4.6,13.06,10.28,13.06h62c5.67,0,11-5.88,10.28-13.06-.07-.67-.39-2-.52-2.65h0s-6.81,1.61-9.12,1.52c-1.56-.06-4.55-1.17-6.08-1.52-1.88-.42-5.72-1-7.59-1.52a94.64,94.64,0,0,1-9.12-3c-1.57-.65-4.53-2.34-6.08-3-1.86-.84-5.83-2-7.59-3-2.1-1.23-7-3.39-9.12-4.56-1.49-.82-3.47-3.25-4.56-4.56-1.76-2.13-5.21-8.92-3-10.64,1.61-1.26,5.73,2.21,7.6,3,1.55.7,4.53,2.35,6.08,3,1.86.84,5.59,2.65,7.59,3s5.7,0,7.6,0h7.6c2.28,0,6.85.29,9.12,0a85.06,85.06,0,0,0,8.64-2.25c2-.55,6.79-.64,8.07-2.31,5.78-7.56,3-38,3-38,2.45-3.54,2.39-7.77,4.85-12C374.58,247.07,377.14,228.5,373.12,226.46Z" style="fill:#b78dce"/><path d="M283,248.16c3.4-16.25,12.79-25.91,20.86-30.72,9.07-5.41,12.93,16,9.53,32.24" style="fill:#633c73"/><path d="M336.81,249a9.89,9.89,0,0,1,1-2c4.95-8.58,24.91-18.75,30.54-15.89,2.59,1.32-1.37,20.55-6.32,29.13" style="fill:#633c73"/><path d="M366.57,300.58c0,8-7.75,11.39-18.24,11.39-6.55,0-10.26-.72-13.67-4.56-2.05-2.3-6.08-3.84-6.08-6.83,0-8,9.26-9.88,19.75-9.88S366.57,292.61,366.57,300.58Z"/><circle cx="346.81" cy="275.51" r="12.16" style="fill:#179900"/><circle cx="316.43" cy="275.51" r="10.64" style="fill:#179900"/><path d="M302.75,308.93c-.88-.19-.81-1.34-1.52-1.52-2.09-.5-3-1.31-3-1.52" style="fill:#ebc0ff"/><path d="M177.37,288.1s-11.35,1-11.37,5.64,11.37,11.38,11.37,11.38c0,2.59,1.18,9.89,2.63,9.89h13.76c1.46,0,2.63-2.1,2.63-4.69V283.24c0-2.59-1.17-4.69-2.63-4.69H180C178.55,278.55,177.37,285.51,177.37,288.1Z" style="fill:#b78dce"/><path d="M370.14,335.79c0,.77,3.08,11.92,2.55,19.16a7,7,0,0,1-1.91,4,18.29,18.29,0,0,1-2.33,2.11c-5.22,4.75-9.66-26.76-29.23-26.47-.87,0-27.21-5.94-30.39-8.23-9.53-6.87-13.68-17-13.68-20.58,0-6.57,13.4,11.58,38.49,11.58,6.1,0,13.31-.39,17.83.76C365.51,321.75,370.14,330.82,370.14,335.79Z" style="fill:#ff351f"/><rect x="346.81" y="272.47" width="7.6" height="7.6" rx="1.98" style="fill:#26ff00"/><rect x="317.94" y="272.47" width="6.08" height="6.08" rx="1.29" style="fill:#26ff00"/><circle cx="352.13" cy="276.27" r="2.28" style="fill:#b8f9aa"/><circle cx="322.5" cy="275.51" r="1.52" style="fill:#b8f9aa"/><ellipse cx="354.41" cy="298.3" rx="4.56" ry="3.04" style="fill:#fff"/><line x1="19.04" y1="159.97" x2="21.86" y2="143.94" style="fill:none"/><path d="M18.75,194.62c-5.65-1.57-8.71-8.33-6.83-15.1s8-11,13.65-9.4" style="fill:#1239ff"/><path d="M20,195.46c-5.66-1.58-8.71-8.34-6.83-15.11s8-11,13.65-9.4" style="fill:#0a2199"/><path d="M119.74,207.9l22-138.69a18.52,18.52,0,0,0-18.47-21.46L39,48.73a18.54,18.54,0,0,0-17.45,24L64.21,210.69a18.48,18.48,0,0,0,17.87,13.05l19.62-.22A18.51,18.51,0,0,0,119.74,207.9Z" style="fill:#f2544c"/><polygon points="93.19 0.1 88.25 5.16 87.3 10.17 85.34 13.19 88.43 21.16 86.55 31.18 87.68 42.17 91.75 48.12 95.73 133.08 78.73 133.28 79.75 48.26 83.65 40.21 84.58 34.2 82.48 25.23 84.41 19.2 82.32 11.23 86.26 6.18 87.36 1.82 93.19 0.1" style="fill:#ffe100"/><path d="M30.3,139.34C43.83,139.18,57.59,164,57.81,183s29.48,38.16,16,38.32S6.09,207.18,5.87,188.13,16.77,139.5,30.3,139.34Z" style="fill:#f2544c"/><rect x="77.08" y="227.65" width="39" height="41.85" rx="5.08" transform="translate(-2.89 1.14) rotate(-0.67)" style="fill:#f2544c"/><rect x="78.85" y="273.07" width="36.74" height="39.43" rx="5.08" transform="translate(-3.4 1.15) rotate(-0.67)" style="fill:#f2544c"/><rect x="80.6" y="316.07" width="34.48" height="37" rx="5.08" transform="translate(-3.89 1.16) rotate(-0.67)" style="fill:#f2544c"/><rect x="79.58" y="357.06" width="38" height="40.78" rx="5.08" transform="translate(-4.38 1.17) rotate(-0.67)" style="fill:#f2544c"/><rect x="84.23" y="402.06" width="29.82" height="32" rx="5.08" transform="translate(-4.86 1.18) rotate(-0.67)" style="fill:#f2544c"/><path d="M104.43,486.3l8.06-19.44a4.89,4.89,0,0,0,.39-2L112.61,442a5.08,5.08,0,0,0-5.13-5l-16.87.2a5.08,5.08,0,0,0-5,5.13l.27,22.85a5,5,0,0,0,.46,2.05l8.81,19.27A5.07,5.07,0,0,0,104.43,486.3Z" style="fill:#f2544c"/><path d="M121,207.88,141.74,69.21c1.69-11.34-6.64-21.59-17.46-21.47l-32.69.38L85.77,136.2,80,48.26l-35.33.41c-11.68.13-19.92,12.17-16.46,24l40.34,138c2.29,7.84,9.16,13.16,16.88,13.07l18.53-.22C112.48,223.39,119.67,216.8,121,207.88Z" style="fill:#b32515"/><path d="M121,208.88,141.75,70.21c1.7-11.34-6.64-21.59-17.46-21.47l-32.69.38L85.78,137.2,80,49.26l-35.33.41c-11.68.13-19.92,12.17-16.46,24l40.34,138c2.29,7.84,9.16,13.16,16.89,13.07l18.52-.22C112.5,224.39,119.69,217.8,121,208.88Z" style="fill:#b32515"/><path d="M121,207.88,141.74,69.21c1.69-11.34-6.64-21.59-17.46-21.47l-32.69.38-3.74,9.05,2.55,9-2.35,8,1.24,8.71-3,9.31L88,102.86l-2.2,33.34-2-30.77,1.57-7.23L82.59,87.62l2.5-9.42-3.67-8.54L84.9,61.2,80.4,54,80,48.26l-35.33.41c-11.68.13-19.92,12.17-16.46,24l40.34,138c2.29,7.84,9.16,13.16,16.88,13.07l18.53-.22C112.48,223.39,119.67,216.8,121,207.88Z" style="fill:#b32515"/><path d="M85.32,269.64l26.52-.31a4.88,4.88,0,0,0,4.61-5.13l-.37-31.7a4.88,4.88,0,0,0-4.72-5l-26.53.31a4.88,4.88,0,0,0-4.61,5.13l.37,31.7A4.89,4.89,0,0,0,85.32,269.64Z" style="fill:#b32515"/><path d="M116,307.21l-.34-29.28a4.88,4.88,0,0,0-4.72-5l-24.45.29a4.88,4.88,0,0,0-4.61,5.13l.34,29.27a4.89,4.89,0,0,0,4.73,5l24.44-.28A4.88,4.88,0,0,0,116,307.21Z" style="fill:#b32515"/><path d="M115.59,347.79l-.32-26.85a4.88,4.88,0,0,0-4.72-5l-22.37.26a4.89,4.89,0,0,0-4.61,5.13l.31,26.85a4.89,4.89,0,0,0,4.73,5l22.37-.26A4.89,4.89,0,0,0,115.59,347.79Z" style="fill:#b32515"/><path d="M118,392.54l-.36-30.62a4.88,4.88,0,0,0-4.73-5l-25.6.29a4.89,4.89,0,0,0-4.61,5.13L83,393a4.88,4.88,0,0,0,4.72,5l25.61-.3A4.88,4.88,0,0,0,118,392.54Z" style="fill:#b32515"/><path d="M114.69,428.8,114.44,407a4.89,4.89,0,0,0-4.73-5l-18.08.21A4.88,4.88,0,0,0,87,407.28l.25,21.84a4.88,4.88,0,0,0,4.73,5l18.08-.21A4.88,4.88,0,0,0,114.69,428.8Z" style="fill:#b32515"/><path d="M105.78,486.28l7.4-19.42a5.49,5.49,0,0,0,.35-2L113.26,442a4.88,4.88,0,0,0-4.72-5L93,437.13a4.88,4.88,0,0,0-4.61,5.13l.26,22.85a5.49,5.49,0,0,0,.43,2.05l8.12,19.28A4.52,4.52,0,0,0,105.78,486.28Z" style="fill:#b32515"/><path d="M36.3,140.27c12.44-.14,25.12,24.66,25.34,43.71s27.14,38.19,14.7,38.33S14.1,208.09,13.88,189,23.86,140.42,36.3,140.27Z" style="fill:#b32515"/><circle cx="27.32" cy="183.88" r="13" style="fill:#1bb300"/><circle cx="30.75" cy="156.59" r="16.75" style="fill:#1bb300"/><path d="M33,146.46s4.37,4.49,4,6.3c-.47,2-7.07,4.44-7.07,4.44" style="fill:#b39e00"/><path d="M24,172.88c-9.81-2.76-15.7-12.33-13.15-21.36s12.56-14.11,22.37-11.34" style="fill:#1239ff"/><path d="M26.28,172.7c-9.8-2.76-15.69-12.33-13.14-21.36S25.7,137.23,35.51,140" style="fill:#0a2199"/><path d="M26.08,173.7s3,2.92,2.78,4.14c-.28,1.43-4.84,3.25-4.84,3.25" style="fill:#bfa900"/><path d="M33.53,148.2s1.17,1.19,1.06,1.67-1.88,1.18-1.88,1.18" style="fill:#ffe100"/><path d="M26.16,174.81s.51.52.46.73-.82.51-.82.51" style="fill:#ffe100"/><path d="M18.89,194.48c-5.66-1.57-8.71-8.33-6.83-15.1s8-11,13.65-9.4" style="fill:#1239ff"/><path d="M20.16,195.32c-5.66-1.58-8.72-8.34-6.83-15.11s8-11,13.65-9.4" style="fill:#0a2199"/></svg>
